<?xml version="1.0" encoding="utf-8"?>
<!-- Generator: Adobe Illustrator 16.0.0, SVG Export Plug-In . SVG Version: 6.00 Build 0)  -->
<!DOCTYPE svg PUBLIC "-//W3C//DTD SVG 1.1//EN" "http://www.w3.org/Graphics/SVG/1.1/DTD/svg11.dtd">
<svg version="1.1" xmlns="http://www.w3.org/2000/svg" xmlns:xlink="http://www.w3.org/1999/xlink" x="0px" y="0px" width="960px"
	 height="852px" viewBox="0 0 960 852" enable-background="new 0 0 960 852" xml:space="preserve">
<g id="Ebene_2">
	<polygon display="none" points="953,721.908 440.001,1018.017 -73,721.908 -73,129.689 440,-166.42 953,129.689 	"/>
</g>
<g id="Ebene_4">
</g>
<g id="Ebene_1">
	<g>
		<polygon points="239.701,852 -0.585,426 239.701,0 720.274,0 960.561,426 720.274,852 		"/>
		<g>
			<polygon fill="#004040" stroke="#99FFFF" stroke-width="4" stroke-miterlimit="10" points="339.049,181.912 198.166,425.929 
				339.104,669.977 620.927,670.009 645.132,628.086 540.676,567.778 540.612,446.736 645.469,386.271 749.925,446.577 
				761.81,425.993 620.871,181.944 			"/>
			<g>
				<polygon fill="#00BFBF" stroke="#004040" stroke-width="3" stroke-miterlimit="10" points="781.393,478.401 755.012,463.171 
					754.99,570.887 661.716,624.764 688.097,639.995 781.447,586.162 				"/>
				<polygon fill="#00FFFF" stroke="#004040" stroke-width="3" stroke-miterlimit="10" points="558.273,565.042 558.219,457.28 
					651.57,403.448 744.978,457.377 745.033,565.138 651.682,618.971 				"/>
				<polygon fill="#008080" stroke="#004040" stroke-width="3" stroke-miterlimit="10" points="817.809,499.426 791.428,484.195 
					791.406,591.911 698.132,645.788 724.513,661.02 817.863,607.187 				"/>
			</g>
		</g>
	</g>
</g>
<g id="Ebene_1_Kopie" display="none">
	<g display="inline">
		<polygon fill="#2D0404" stroke="#000000" stroke-miterlimit="10" points="237.755,75.758 35.603,425.897 237.835,776.082 
			642.221,776.128 676.952,715.973 527.068,629.438 526.978,455.754 677.437,368.992 827.32,455.526 844.373,425.989 
			642.141,75.805 		"/>
		<g>
			<polygon fill="#BF0000" stroke="#000000" stroke-miterlimit="10" points="872.473,501.19 834.619,479.336 834.588,633.897 
				700.749,711.206 738.603,733.061 872.552,655.816 			"/>
			<polygon fill="#FF0000" stroke="#000000" stroke-miterlimit="10" points="552.32,625.511 552.241,470.884 686.19,393.641 
				820.221,471.022 820.301,625.648 686.351,702.893 			"/>
			<polygon fill="#800000" stroke="#000000" stroke-miterlimit="10" points="924.726,531.358 886.872,509.504 886.841,664.065 
				753.002,741.374 790.855,763.229 924.805,685.984 			"/>
		</g>
	</g>
</g>
</svg>
